<?xml version="1.0" encoding="UTF-8"?>
<!DOCTYPE svg PUBLIC "-//W3C//DTD SVG 1.1//EN" "http://www.w3.org/Graphics/SVG/1.1/DTD/svg11.dtd">
<!-- Creator: CorelDRAW -->
<svg xmlns="http://www.w3.org/2000/svg" xml:space="preserve" width="70.4368mm" height="54.319mm" version="1.1" style="shape-rendering:geometricPrecision; text-rendering:geometricPrecision; image-rendering:optimizeQuality; fill-rule:evenodd; clip-rule:evenodd"
viewBox="0 0 1437.5 1108.56"
 xmlns:xlink="http://www.w3.org/1999/xlink"
 xmlns:xodm="http://www.corel.com/coreldraw/odm/2003">
 <defs>
  <style type="text/css">
   <![CDATA[
    .fil0 {fill:black}
    .fil2 {fill:white;fill-rule:nonzero}
    .fil1 {fill:url(#id0);fill-rule:nonzero}
    .fil3 {fill:url(#id1);fill-rule:nonzero}
   ]]>
  </style>
  <linearGradient id="id0" gradientUnits="userSpaceOnUse" x1="303.87" y1="979.29" x2="1142.11" y2="589.84">
   <stop offset="0" style="stop-opacity:1; stop-color:#8AE1A1"/>
   <stop offset="0.458824" style="stop-opacity:1; stop-color:#357435"/>
   <stop offset="1" style="stop-opacity:1; stop-color:#6FBC62"/>
  </linearGradient>
  <linearGradient id="id1" gradientUnits="userSpaceOnUse" x1="265.24" y1="11.78" x2="1056.31" y2="450.68">
   <stop offset="0" style="stop-opacity:1; stop-color:#8AE1A1"/>
   <stop offset="0.521569" style="stop-opacity:1; stop-color:#357435"/>
   <stop offset="1" style="stop-opacity:1; stop-color:#6FBC62"/>
  </linearGradient>
 </defs>
 <g id="Camada_x0020_1">
  <metadata id="CorelCorpID_0Corel-Layer"/>
  <path class="fil0" d="M143.56 960.96c-27.37,0 -53.71,-6.03 -76.8,-21.12 -22.1,-14.45 -38.39,-34.17 -49.57,-58 -12.3,-26.21 -17.19,-54.71 -17.19,-83.52 0,-29.1 4.91,-58 17.61,-84.36 11.44,-23.75 27.84,-43.53 49.95,-57.96 22.68,-14.8 48.24,-21.12 75.2,-21.12 20.82,0 41.26,3.65 60.23,12.41 17.53,8.09 32.52,19.63 44.29,34.95 11.9,15.48 18.82,33.23 21.5,52.55 0.21,1.54 -0.21,2.94 -1.22,4.11 -1.02,1.17 -2.36,1.78 -3.91,1.78l-46.92 0c-2.4,0 -4.42,-1.57 -5.02,-3.89 -3.55,-13.8 -11.66,-25.04 -22.26,-34.38 -12.79,-11.27 -29.19,-15.01 -45.88,-15.01 -16.39,0 -31.65,4.05 -45.17,13.4 -13.75,9.5 -23.48,22.62 -30.22,37.8 -8.08,18.18 -10.89,38.37 -10.89,58.14 0,20.18 2.72,40.92 10.71,59.59 6.6,15.41 16.25,28.84 30.04,38.56 13.56,9.56 29.01,13.57 45.53,13.57 10.71,0 21.28,-1.73 31.17,-5.94 9.07,-3.87 16.91,-9.47 23.37,-16.92 6.67,-7.7 11.04,-16.72 13.62,-26.55 0.6,-2.31 2.62,-3.87 5.01,-3.87l46.92 0c1.56,0 2.9,0.61 3.92,1.79 1.02,1.18 1.43,2.6 1.2,4.14 -2.74,18.65 -9.57,35.73 -20.61,50.99 -11.24,15.53 -25.9,27.32 -43.06,35.81 -19.16,9.47 -40.31,13.06 -61.54,13.06zm226.82 -143.15c0.97,15.4 4.09,30.96 11.02,44.78 7.24,14.42 17.57,26.13 31.57,34.22 14.48,8.38 30.7,11.63 47.31,11.63 10.71,0 21.55,-1.32 31.69,-4.88 9.08,-3.19 17.25,-8.02 24.15,-14.73 7.14,-6.95 12.18,-15.46 15.66,-24.75 0.95,-2.53 3.65,-3.9 6.25,-3.17l45.33 12.72c1.4,0.39 2.46,1.24 3.15,2.51 0.69,1.28 0.83,2.62 0.4,4.01 -5.02,16.19 -13.47,30.47 -25.29,42.63 -12.3,12.67 -27.18,21.89 -43.59,28.26 -18.39,7.14 -38.09,9.89 -57.74,9.89 -27.78,0 -54.97,-5.59 -78.86,-20.25 -22.58,-13.86 -39.46,-33.21 -51.06,-57.02 -12.84,-26.34 -17.62,-55.47 -17.62,-84.58 0,-29.27 4.89,-58.4 17.61,-84.95 11.42,-23.82 27.8,-43.7 49.96,-58.17 22.68,-14.8 48.24,-21.12 75.2,-21.12 16.67,0 33.02,2.84 48.8,8.23 16.65,5.69 31.36,14.98 44.21,26.96 14.46,13.48 24.61,30.52 31.72,48.84 8.96,23.12 11.68,49.21 11.68,73.85l0 19.88c0,2.85 -2.33,5.18 -5.18,5.18l-216.35 0zm338.24 -143.5c6.34,-10.16 14.94,-18.53 25.41,-25.29 15.79,-10.2 33.33,-14.95 52.12,-14.95 4.35,0 8.71,0.09 13.06,0.2 4.01,0.1 8.12,0.22 12.11,0.62 2.66,0.27 4.67,2.48 4.67,5.16l0 47.72c0,1.65 -0.69,3.07 -1.99,4.08 -1.3,1.02 -2.84,1.34 -4.45,0.94 -3.19,-0.8 -7.12,-1.23 -10.46,-1.69 -5.63,-0.94 -11.28,-1.33 -16.91,-1.33 -13.08,0 -25.73,2.57 -37.34,8.74 -10.59,5.63 -19.15,13.41 -25.46,23.6 -6.42,10.37 -9.16,21.89 -9.16,34.05l0 193.26c0,2.85 -2.33,5.18 -5.18,5.18l-46.92 0c-2.85,0 -5.18,-2.33 -5.18,-5.18l0 -305.39c0,-2.85 2.33,-5.18 5.18,-5.18l45.33 0c2.85,0 5.18,2.33 5.18,5.18l0 30.28zm272.57 286.65c-27.37,0 -53.71,-6.03 -76.8,-21.12 -22.1,-14.45 -38.39,-34.17 -49.57,-58 -12.3,-26.21 -17.19,-54.71 -17.19,-83.52 0,-29.1 4.91,-58 17.61,-84.36 11.45,-23.75 27.84,-43.53 49.95,-57.96 22.68,-14.8 48.24,-21.12 75.2,-21.12 20.82,0 41.26,3.65 60.23,12.41 17.53,8.09 32.52,19.63 44.29,34.95 11.9,15.48 18.82,33.23 21.5,52.55 0.21,1.54 -0.21,2.94 -1.22,4.11 -1.02,1.17 -2.36,1.78 -3.91,1.78l-46.92 0c-2.4,0 -4.42,-1.57 -5.02,-3.89 -3.55,-13.8 -11.66,-25.04 -22.26,-34.38 -12.79,-11.27 -29.19,-15.01 -45.88,-15.01 -16.39,0 -31.64,4.05 -45.17,13.4 -13.75,9.5 -23.48,22.62 -30.22,37.8 -8.08,18.18 -10.89,38.37 -10.89,58.14 0,20.18 2.72,40.92 10.72,59.59 6.6,15.41 16.25,28.84 30.03,38.56 13.56,9.56 29.01,13.57 45.53,13.57 10.71,0 21.29,-1.73 31.17,-5.94 9.07,-3.87 16.91,-9.47 23.37,-16.92 6.67,-7.7 11.04,-16.72 13.62,-26.55 0.6,-2.31 2.62,-3.87 5.01,-3.87l46.92 0c1.56,0 2.9,0.61 3.92,1.79 1.02,1.18 1.43,2.6 1.2,4.14 -2.74,18.65 -9.57,35.73 -20.61,50.99 -11.24,15.53 -25.9,27.33 -43.06,35.81 -19.16,9.47 -40.31,13.06 -61.55,13.06zm312.75 0c-26.86,0 -52.53,-6.05 -75.34,-20.48 -22.23,-14.07 -38.8,-33.59 -50.39,-57.17 -13,-26.44 -17.83,-55.73 -17.83,-84.99 0,-29.44 4.81,-58.96 17.82,-85.58 11.56,-23.65 28.11,-43.28 50.4,-57.38 22.81,-14.43 48.48,-20.48 75.34,-20.48 26.81,0 52.37,6.08 75.14,20.48 22.31,14.11 38.82,33.69 50.4,57.38 13.04,26.68 18.02,56.07 18.02,85.58 0,29.34 -5.01,58.51 -18.03,84.99 -11.61,23.61 -28.13,43.08 -50.39,57.17 -22.77,14.4 -48.33,20.48 -75.14,20.48zm-923.2 -194.07l162.98 0c-0.59,-13.44 -3.55,-26.48 -9.67,-38.61 -6.31,-12.5 -15.26,-22.53 -27.15,-29.95 -12.55,-7.84 -26.7,-10.95 -41.39,-10.95 -16.4,0 -31.95,3.76 -45.6,13.02 -12.8,8.68 -22.61,19.94 -29.48,33.8 -5.14,10.37 -8.36,21.28 -9.69,32.68zm923.2 141.56c17.52,0 34.54,-3.92 48.47,-14.98 13.29,-10.56 22.49,-24.21 28.39,-40.09 6.56,-17.68 9.42,-36.24 9.42,-55.06 0,-18.89 -2.88,-37.51 -9.42,-55.27 -5.89,-16 -15.09,-29.8 -28.41,-40.5 -13.9,-11.18 -30.89,-15.16 -48.45,-15.16 -17.56,0 -34.54,3.98 -48.45,15.16 -13.31,10.7 -22.51,24.51 -28.41,40.5 -6.54,17.76 -9.42,36.38 -9.42,55.27 0,18.82 2.86,37.38 9.42,55.06 5.9,15.88 15.09,29.54 28.39,40.1 13.93,11.07 30.95,14.98 48.47,14.98z"/>
  <path class="fil1" d="M143.56 955.78c-28.63,0 -53.28,-6.76 -73.96,-20.28 -20.68,-13.52 -36.58,-32.14 -47.72,-55.87 -11.13,-23.73 -16.7,-50.83 -16.7,-81.32 0,-31.02 5.7,-58.39 17.1,-82.11 11.53,-23.86 27.57,-42.48 48.11,-55.87 20.68,-13.52 44.8,-20.28 72.37,-20.28 21.47,0 40.82,3.98 58.06,11.93 17.23,7.95 31.35,19.09 42.35,33.4 11,14.32 17.83,31.02 20.48,50.1l-46.92 0c-3.58,-13.92 -11.53,-26.25 -23.86,-36.98 -12.19,-10.87 -28.63,-16.3 -49.31,-16.3 -18.29,0 -34.33,4.77 -48.11,14.31 -13.65,9.41 -24.32,22.73 -32.01,39.96 -7.56,17.1 -11.33,37.18 -11.33,60.24 0,23.59 3.71,44.14 11.13,61.63 7.56,17.5 18.16,31.08 31.81,40.76 13.78,9.68 29.96,14.51 48.51,14.51 12.19,0 23.26,-2.12 33.2,-6.36 9.94,-4.24 18.36,-10.34 25.25,-18.29 6.89,-7.95 11.8,-17.5 14.71,-28.63l46.92 0c-2.65,18.03 -9.21,34.26 -19.68,48.71 -10.34,14.32 -24.06,25.71 -41.16,34.2 -16.97,8.35 -36.71,12.52 -59.25,12.52zm316.72 0c-29.42,0 -54.81,-6.49 -76.15,-19.48 -21.21,-13.12 -37.58,-31.41 -49.11,-54.87 -11.4,-23.59 -17.1,-51.03 -17.1,-82.31 0,-31.28 5.7,-58.85 17.1,-82.71 11.53,-23.99 27.57,-42.68 48.11,-56.07 20.68,-13.52 44.8,-20.28 72.37,-20.28 15.91,0 31.61,2.65 47.12,7.95 15.51,5.3 29.62,13.92 42.35,25.85 12.72,11.8 22.86,27.44 30.42,46.92 7.56,19.49 11.33,43.48 11.33,71.97l0 19.88 -235.4 0 0 -40.56 187.69 0c0,-17.23 -3.44,-32.61 -10.34,-46.13 -6.76,-13.52 -16.43,-24.19 -29.03,-32.01 -12.46,-7.82 -27.17,-11.73 -44.14,-11.73 -18.69,0 -34.86,4.64 -48.51,13.92 -13.52,9.15 -23.92,21.08 -31.22,35.79 -7.29,14.71 -10.93,30.49 -10.93,47.32l0 27.04c0,23.06 3.98,42.61 11.93,58.65 8.08,15.91 19.28,28.03 33.6,36.38 14.31,8.22 30.95,12.33 49.9,12.33 12.33,0 23.46,-1.72 33.4,-5.17 10.07,-3.58 18.76,-8.88 26.05,-15.9 7.29,-7.16 12.92,-16.04 16.9,-26.64l45.33 12.72c-4.77,15.38 -12.79,28.9 -24.06,40.56 -11.27,11.53 -25.18,20.55 -41.75,27.04 -16.57,6.36 -35.19,9.54 -55.87,9.54zm197.83 -6.36l0 -305.39 45.33 0 0 46.13 3.18 0c5.57,-15.11 15.64,-27.37 30.22,-36.78 14.58,-9.41 31.02,-14.12 49.31,-14.12 3.44,0 7.75,0.07 12.92,0.2 5.17,0.13 9.08,0.33 11.73,0.6l0 47.72c-1.59,-0.4 -5.23,-1 -10.93,-1.79 -5.57,-0.93 -11.47,-1.39 -17.69,-1.39 -14.85,0 -28.1,3.11 -39.77,9.34 -11.53,6.1 -20.68,14.58 -27.44,25.45 -6.63,10.73 -9.94,23 -9.94,36.78l0 193.26 -46.92 0zm323.08 6.36c-28.63,0 -53.28,-6.76 -73.96,-20.28 -20.68,-13.52 -36.58,-32.14 -47.72,-55.87 -11.13,-23.73 -16.7,-50.83 -16.7,-81.32 0,-31.02 5.7,-58.39 17.1,-82.11 11.53,-23.86 27.57,-42.48 48.11,-55.87 20.68,-13.52 44.8,-20.28 72.37,-20.28 21.47,0 40.82,3.98 58.06,11.93 17.23,7.95 31.35,19.09 42.35,33.4 11,14.32 17.83,31.02 20.48,50.1l-46.92 0c-3.58,-13.92 -11.53,-26.25 -23.86,-36.98 -12.2,-10.87 -28.63,-16.3 -49.31,-16.3 -18.29,0 -34.33,4.77 -48.11,14.31 -13.65,9.41 -24.32,22.73 -32.01,39.96 -7.56,17.1 -11.33,37.18 -11.33,60.24 0,23.59 3.71,44.14 11.13,61.63 7.56,17.5 18.16,31.08 31.81,40.76 13.79,9.68 29.96,14.51 48.51,14.51 12.19,0 23.26,-2.12 33.2,-6.36 9.94,-4.24 18.36,-10.34 25.25,-18.29 6.89,-7.95 11.8,-17.5 14.71,-28.63l46.92 0c-2.65,18.03 -9.21,34.26 -19.68,48.71 -10.34,14.32 -24.06,25.71 -41.16,34.2 -16.97,8.35 -36.72,12.52 -59.25,12.52zm312.75 0c-27.57,0 -51.76,-6.56 -72.57,-19.68 -20.68,-13.12 -36.85,-31.48 -48.51,-55.07 -11.53,-23.59 -17.3,-51.16 -17.3,-82.71 0,-31.81 5.77,-59.58 17.3,-83.31 11.67,-23.72 27.83,-42.15 48.51,-55.27 20.81,-13.12 45,-19.68 72.57,-19.68 27.57,0 51.69,6.56 72.37,19.68 20.81,13.12 36.98,31.55 48.51,55.27 11.66,23.73 17.5,51.49 17.5,83.31 0,31.55 -5.83,59.11 -17.5,82.71 -11.53,23.59 -27.7,41.95 -48.51,55.07 -20.68,13.12 -44.8,19.68 -72.37,19.68zm0 -42.15c20.94,0 38.17,-5.37 51.69,-16.1 13.52,-10.74 23.53,-24.85 30.02,-42.35 6.49,-17.5 9.74,-36.45 9.74,-56.86 0,-20.41 -3.25,-39.43 -9.74,-57.06 -6.49,-17.63 -16.5,-31.88 -30.02,-42.75 -13.52,-10.87 -30.75,-16.3 -51.69,-16.3 -20.94,0 -38.17,5.43 -51.69,16.3 -13.52,10.87 -23.53,25.12 -30.02,42.75 -6.5,17.63 -9.74,36.65 -9.74,57.06 0,20.41 3.25,39.37 9.74,56.86 6.49,17.5 16.5,31.61 30.02,42.35 13.52,10.74 30.75,16.1 51.69,16.1z"/>
  <path class="fil0" d="M75.13 1067.5l22.1 -63.79c0.73,-2.12 2.65,-3.49 4.9,-3.49l16 0c1.75,0 3.25,0.79 4.25,2.22 1,1.43 1.21,3.12 0.61,4.76l-35.49 95.98c-0.77,2.07 -2.65,3.38 -4.86,3.38l-15 0c-2.21,0 -4.09,-1.31 -4.86,-3.38l-35.49 -95.98c-0.61,-1.64 -0.39,-3.32 0.61,-4.76 1,-1.43 2.5,-2.22 4.25,-2.22l16 0c2.25,0 4.16,1.36 4.9,3.49l22.1 63.79zm98.01 41.07c-9.12,0 -17.84,-2.09 -25.58,-6.99 -7.54,-4.77 -13.19,-11.4 -17.13,-19.4 -4.33,-8.81 -5.97,-18.53 -5.97,-28.28 0,-9.8 1.63,-19.59 5.96,-28.46 3.92,-8.03 9.57,-14.69 17.13,-19.47 7.74,-4.9 16.46,-6.99 25.58,-6.99 9.1,0 17.79,2.1 25.51,6.99 7.57,4.79 13.2,11.44 17.13,19.47 4.34,8.88 6.02,18.63 6.02,28.46 0,9.77 -1.69,19.46 -6.03,28.28 -3.94,8.01 -9.58,14.63 -17.13,19.4 -7.72,4.89 -16.41,6.99 -25.51,6.99zm104.99 0c-9.3,0 -18.24,-2.09 -26.08,-7.22 -7.5,-4.9 -13.06,-11.61 -16.85,-19.69 -4.09,-8.71 -5.74,-18.18 -5.74,-27.76 0,-9.69 1.66,-19.28 5.89,-28.06 3.88,-8.05 9.47,-14.76 16.96,-19.65 7.71,-5.03 16.41,-7.22 25.58,-7.22 7.06,0 13.98,1.26 20.42,4.23 6.03,2.78 11.2,6.78 15.25,12.05 4.11,5.35 6.53,11.51 7.46,18.19 0.21,1.54 -0.2,2.94 -1.22,4.12 -1.02,1.17 -2.36,1.78 -3.91,1.78l-14.75 0c-2.4,0 -4.42,-1.57 -5.02,-3.89 -0.93,-3.63 -3.12,-6.57 -5.91,-9.02 -3.34,-2.95 -7.72,-3.83 -12.07,-3.83 -4.43,0 -8.52,1.06 -12.18,3.58 -3.78,2.61 -6.42,6.23 -8.27,10.4 -2.33,5.25 -3.12,11.13 -3.12,16.83 0,5.85 0.76,11.92 3.08,17.33 1.81,4.23 4.43,7.94 8.22,10.61 3.66,2.58 7.81,3.61 12.26,3.61 2.88,0 5.74,-0.45 8.4,-1.58 2.36,-1.01 4.38,-2.44 6.05,-4.38 1.74,-2.01 2.86,-4.36 3.53,-6.92 0.6,-2.31 2.62,-3.87 5.01,-3.87l14.75 0c1.56,0 2.9,0.61 3.92,1.8 1.02,1.18 1.43,2.6 1.2,4.14 -0.95,6.43 -3.31,12.33 -7.12,17.59 -3.87,5.35 -8.92,9.43 -14.83,12.36 -6.52,3.22 -13.69,4.47 -20.92,4.47zm75.23 -44.99c0.47,3.1 1.3,6.15 2.7,8.93 1.96,3.91 4.73,7.08 8.53,9.28 4,2.32 8.5,3.18 13.09,3.18 2.96,0 5.98,-0.35 8.78,-1.33 2.36,-0.83 4.49,-2.08 6.29,-3.82 1.86,-1.81 3.16,-4.05 4.07,-6.48 0.95,-2.53 3.65,-3.9 6.25,-3.17l14.25 4c1.4,0.39 2.46,1.24 3.15,2.51 0.69,1.28 0.83,2.62 0.4,4.01 -1.74,5.62 -4.69,10.6 -8.79,14.82 -4.22,4.35 -9.33,7.53 -14.96,9.72 -6.19,2.4 -12.81,3.35 -19.43,3.35 -9.4,0 -18.57,-1.93 -26.64,-6.89 -7.67,-4.71 -13.44,-11.3 -17.38,-19.39 -4.28,-8.77 -5.9,-18.44 -5.9,-28.14 0,-9.74 1.65,-19.4 5.88,-28.23 3.87,-8.08 9.45,-14.82 16.96,-19.72 7.71,-5.03 16.41,-7.22 25.58,-7.22 5.63,0 11.16,0.96 16.49,2.78 5.71,1.95 10.76,5.13 15.17,9.24 4.94,4.6 8.43,10.4 10.86,16.66 2.98,7.69 3.91,16.3 3.91,24.49l0 6.25c0,2.85 -2.33,5.18 -5.18,5.18l-64.05 0zm22.06 -78.47l-8.84 11.9c-1.01,1.36 -2.47,2.09 -4.16,2.09l-14 0c-2.85,0 -5.18,-2.33 -5.18,-5.18l0 -1c0,-1.2 0.36,-2.23 1.09,-3.18l20.25 -25.99c1.01,-1.3 2.44,-2 4.09,-2l13.5 0c1.65,0 3.07,0.69 4.09,2l20.25 25.99c0.74,0.95 1.09,1.98 1.09,3.18l0 1c0,2.85 -2.33,5.18 -5.18,5.18l-14 0c-1.69,0 -3.15,-0.73 -4.16,-2.09l-8.84 -11.9zm133.34 21.79c1.1,-0.92 2.26,-1.79 3.49,-2.59 6.12,-3.97 13.37,-5.34 20.57,-5.34 6.83,0 13.49,1.35 19.53,4.63 6,3.26 10.45,8.14 13.52,14.21 3.5,6.92 4.62,14.91 4.62,22.58l0 60.99c0,2.85 -2.33,5.18 -5.18,5.18l-14.75 0c-2.85,0 -5.18,-2.33 -5.18,-5.18l0 -59.99c0,-5.02 -0.97,-10.3 -4.49,-14.1 -3.27,-3.53 -7.59,-4.71 -12.32,-4.71 -3.55,0 -6.99,0.68 -10.11,2.41 -2.91,1.61 -5.06,3.95 -6.64,6.87 -1.94,3.57 -2.56,7.76 -2.56,11.78l0 57.74c0,2.85 -2.33,5.18 -5.18,5.18l-14.75 0c-2.85,0 -5.18,-2.33 -5.18,-5.18l0 -95.98c0,-2.85 2.33,-5.18 5.18,-5.18l14.25 0c2.85,0 5.18,2.33 5.18,5.18l0 1.49zm122.5 101.67c-9.12,0 -17.84,-2.09 -25.58,-6.99 -7.54,-4.77 -13.2,-11.4 -17.13,-19.4 -4.33,-8.81 -5.97,-18.53 -5.97,-28.28 0,-9.8 1.63,-19.59 5.96,-28.46 3.92,-8.03 9.57,-14.69 17.13,-19.47 7.74,-4.9 16.46,-6.99 25.58,-6.99 9.1,0 17.79,2.1 25.51,6.99 7.57,4.79 13.2,11.44 17.13,19.47 4.34,8.88 6.02,18.63 6.02,28.46 0,9.77 -1.69,19.46 -6.03,28.28 -3.94,8.01 -9.58,14.63 -17.13,19.4 -7.72,4.89 -16.41,6.99 -25.51,6.99zm154.48 0c-9.3,0 -18.24,-2.09 -26.08,-7.22 -7.5,-4.9 -13.06,-11.61 -16.85,-19.69 -4.09,-8.71 -5.74,-18.18 -5.74,-27.76 0,-9.69 1.66,-19.28 5.89,-28.06 3.88,-8.05 9.47,-14.76 16.96,-19.65 7.71,-5.03 16.41,-7.22 25.58,-7.22 7.06,0 13.98,1.26 20.42,4.23 6.03,2.78 11.2,6.78 15.25,12.05 4.11,5.35 6.53,11.51 7.46,18.19 0.21,1.54 -0.21,2.94 -1.22,4.11 -1.02,1.17 -2.36,1.78 -3.91,1.78l-14.75 0c-2.4,0 -4.42,-1.57 -5.02,-3.89 -0.93,-3.63 -3.12,-6.57 -5.91,-9.02 -3.34,-2.95 -7.72,-3.83 -12.07,-3.83 -4.43,0 -8.52,1.06 -12.18,3.58 -3.78,2.61 -6.42,6.23 -8.27,10.4 -2.33,5.25 -3.12,11.13 -3.12,16.83 0,5.85 0.77,11.92 3.08,17.33 1.81,4.23 4.43,7.94 8.22,10.61 3.66,2.58 7.81,3.61 12.26,3.61 2.88,0 5.74,-0.45 8.4,-1.58 2.36,-1.01 4.38,-2.44 6.05,-4.38 1.74,-2.01 2.86,-4.36 3.53,-6.92 0.6,-2.31 2.62,-3.87 5.01,-3.87l14.75 0c1.56,0 2.9,0.61 3.92,1.79 1.02,1.18 1.43,2.6 1.21,4.14 -0.94,6.43 -3.31,12.33 -7.11,17.59 -3.87,5.35 -8.92,9.43 -14.84,12.36 -6.52,3.22 -13.69,4.47 -20.92,4.47zm98.29 0c-9.12,0 -17.84,-2.09 -25.58,-6.99 -7.54,-4.77 -13.2,-11.4 -17.13,-19.4 -4.33,-8.81 -5.97,-18.53 -5.97,-28.28 0,-9.8 1.63,-19.59 5.96,-28.46 3.92,-8.03 9.57,-14.69 17.13,-19.47 7.74,-4.9 16.46,-6.99 25.58,-6.99 9.1,0 17.79,2.1 25.51,6.99 7.57,4.79 13.2,11.44 17.13,19.47 4.34,8.88 6.02,18.63 6.02,28.46 0,9.77 -1.69,19.46 -6.03,28.28 -3.94,8.01 -9.58,14.63 -17.13,19.4 -7.73,4.89 -16.41,6.99 -25.51,6.99zm85.43 -101.67c1.1,-0.92 2.26,-1.79 3.49,-2.59 6.11,-3.97 13.37,-5.34 20.57,-5.34 6.83,0 13.49,1.35 19.53,4.63 6,3.26 10.45,8.14 13.52,14.21 3.5,6.92 4.62,14.91 4.62,22.58l0 60.99c0,2.85 -2.33,5.18 -5.18,5.18l-14.75 0c-2.85,0 -5.18,-2.33 -5.18,-5.18l0 -59.99c0,-5.02 -0.97,-10.3 -4.49,-14.1 -3.27,-3.53 -7.6,-4.71 -12.32,-4.71 -3.55,0 -6.99,0.68 -10.11,2.41 -2.91,1.61 -5.06,3.95 -6.64,6.87 -1.94,3.58 -2.56,7.76 -2.56,11.78l0 57.74c0,2.85 -2.33,5.18 -5.18,5.18l-14.75 0c-2.85,0 -5.18,-2.33 -5.18,-5.18l0 -95.98c0,-2.85 2.33,-5.18 5.18,-5.18l14.25 0c2.85,0 5.18,2.33 5.18,5.18l0 1.49zm109.93 16.19l0 50.81c0,1.86 0.15,5.11 1.08,6.72 0.48,0.79 1.15,1.57 2.03,1.89 1.4,0.48 2.91,0.7 4.45,0.7 1.03,0 2.16,-0.02 3.08,-0.17 0.73,-0.15 1.56,-0.31 2.39,-0.48 2.76,-0.56 5.46,1.19 6.08,3.93l3 13.25c0.58,2.54 -0.79,5.08 -3.23,6 -1.58,0.59 -3.3,1 -4.89,1.33 -2.52,0.59 -5.29,0.75 -7.93,0.75 -5,0 -9.82,-1.09 -14.38,-3.14 -4.87,-2.19 -8.88,-5.55 -11.97,-9.91 -3.52,-4.96 -4.83,-10.86 -4.83,-16.87l0 -54.81 -9.31 0c-2.85,0 -5.18,-2.33 -5.18,-5.18l0 -12.5c0,-2.85 2.33,-5.18 5.18,-5.18l9.31 0 0 -17.81c0,-2.85 2.33,-5.18 5.18,-5.18l14.75 0c2.85,0 5.18,2.33 5.18,5.18l0 17.81 15.31 0c2.85,0 5.18,2.33 5.18,5.18l0 12.5c0,2.85 -2.33,5.18 -5.18,5.18l-15.31 0zm56.93 -17.31c0.8,-0.63 1.63,-1.22 2.51,-1.79 5.54,-3.58 11.72,-5.27 18.31,-5.27 1.4,0 2.8,0.03 4.19,0.07 1.35,0.03 2.72,0.08 4.06,0.21 2.66,0.26 4.68,2.48 4.68,5.16l0 15c0,1.65 -0.7,3.07 -2,4.09 -1.3,1.01 -2.85,1.34 -4.45,0.93 -0.89,-0.21 -1.98,-0.33 -2.96,-0.47 -1.62,-0.27 -3.2,-0.38 -4.78,-0.38 -3.52,0 -6.94,0.67 -10.07,2.33 -2.77,1.47 -4.99,3.48 -6.65,6.15 -1.67,2.69 -2.35,5.67 -2.35,8.83l0 60.74c0,2.85 -2.33,5.18 -5.18,5.18l-14.75 0c-2.85,0 -5.18,-2.33 -5.18,-5.18l0 -95.98c0,-2.85 2.33,-5.18 5.18,-5.18l14.25 0c2.85,0 5.18,2.33 5.18,5.18l0 0.37zm82.11 102.79c-9.12,0 -17.84,-2.09 -25.58,-6.99 -7.54,-4.77 -13.2,-11.4 -17.13,-19.4 -4.33,-8.81 -5.97,-18.53 -5.97,-28.28 0,-9.8 1.63,-19.59 5.96,-28.46 3.92,-8.03 9.57,-14.69 17.13,-19.47 7.74,-4.9 16.46,-6.99 25.58,-6.99 9.1,0 17.79,2.1 25.51,6.99 7.57,4.79 13.2,11.44 17.13,19.47 4.34,8.88 6.03,18.63 6.03,28.46 0,9.77 -1.7,19.46 -6.03,28.28 -3.94,8.01 -9.57,14.63 -17.12,19.4 -7.73,4.89 -16.41,6.99 -25.51,6.99zm85.93 -135.15l0 127.97c0,2.85 -2.33,5.18 -5.18,5.18l-14.75 0c-2.85,0 -5.18,-2.33 -5.18,-5.18l0 -127.97c0,-2.85 2.33,-5.18 5.18,-5.18l14.75 0c2.85,0 5.18,2.33 5.18,5.18zm37.76 90.16c0.47,3.1 1.3,6.15 2.7,8.92 1.96,3.91 4.73,7.08 8.52,9.28 4,2.32 8.5,3.18 13.09,3.18 2.96,0 5.98,-0.35 8.78,-1.33 2.37,-0.83 4.49,-2.08 6.29,-3.82 1.86,-1.81 3.16,-4.05 4.07,-6.48 0.95,-2.53 3.65,-3.9 6.25,-3.17l14.25 4c1.4,0.39 2.46,1.24 3.15,2.51 0.69,1.28 0.83,2.62 0.4,4.01 -1.74,5.62 -4.69,10.6 -8.79,14.82 -4.22,4.35 -9.33,7.53 -14.97,9.72 -6.19,2.4 -12.81,3.35 -19.43,3.35 -9.39,0 -18.57,-1.93 -26.64,-6.89 -7.67,-4.71 -13.44,-11.3 -17.38,-19.39 -4.28,-8.77 -5.9,-18.44 -5.9,-28.14 0,-9.74 1.65,-19.4 5.88,-28.23 3.87,-8.08 9.45,-14.82 16.96,-19.72 7.71,-5.03 16.41,-7.22 25.58,-7.22 5.63,0 11.16,0.96 16.48,2.78 5.71,1.95 10.76,5.13 15.17,9.24 4.94,4.6 8.43,10.4 10.86,16.66 2.98,7.69 3.91,16.3 3.91,24.49l0 6.25c0,2.85 -2.33,5.18 -5.18,5.18l-64.05 0zm-1168.98 21.38c4.68,0 9.29,-0.98 13.02,-3.94 3.67,-2.91 6.17,-6.68 7.8,-11.06 1.91,-5.16 2.74,-10.58 2.74,-16.07 0,-5.52 -0.83,-10.96 -2.74,-16.14 -1.63,-4.42 -4.14,-8.23 -7.82,-11.19 -3.72,-2.99 -8.31,-3.98 -13,-3.98 -4.69,0 -9.28,0.99 -13,3.98 -3.68,2.96 -6.19,6.77 -7.82,11.19 -1.91,5.19 -2.74,10.62 -2.74,16.14 0,5.49 0.82,10.91 2.74,16.07 1.63,4.38 4.13,8.14 7.8,11.06 3.73,2.96 8.34,3.94 13.02,3.94zm180.68 -44.49l43 0c-0.41,-2.41 -1.14,-4.75 -2.27,-6.98 -1.69,-3.35 -4.06,-6.01 -7.24,-8 -3.37,-2.11 -7.18,-2.9 -11.13,-2.9 -4.44,0 -8.64,0.97 -12.34,3.48 -3.52,2.38 -6.19,5.45 -8.08,9.26 -0.82,1.67 -1.47,3.38 -1.94,5.14zm277.44 44.49c4.68,0 9.29,-0.98 13.02,-3.94 3.67,-2.91 6.17,-6.67 7.8,-11.05 1.91,-5.16 2.74,-10.58 2.74,-16.07 0,-5.52 -0.83,-10.96 -2.74,-16.14 -1.63,-4.42 -4.14,-8.23 -7.82,-11.19 -3.72,-2.99 -8.31,-3.98 -13,-3.98 -4.69,0 -9.28,0.99 -13,3.98 -3.68,2.96 -6.19,6.77 -7.82,11.19 -1.91,5.19 -2.74,10.62 -2.74,16.14 0,5.49 0.82,10.91 2.74,16.07 1.63,4.38 4.13,8.14 7.8,11.06 3.73,2.96 8.34,3.94 13.02,3.94zm252.77 0c4.68,0 9.29,-0.98 13.02,-3.94 3.67,-2.91 6.18,-6.67 7.8,-11.05 1.91,-5.16 2.74,-10.58 2.74,-16.07 0,-5.52 -0.83,-10.96 -2.74,-16.14 -1.63,-4.42 -4.14,-8.23 -7.82,-11.19 -3.72,-2.99 -8.31,-3.98 -13,-3.98 -4.69,0 -9.28,0.99 -13,3.98 -3.68,2.96 -6.19,6.77 -7.82,11.19 -1.91,5.19 -2.74,10.62 -2.74,16.14 0,5.49 0.82,10.91 2.74,16.07 1.63,4.38 4.13,8.14 7.8,11.06 3.73,2.96 8.34,3.94 13.02,3.94zm334.4 0c4.68,0 9.29,-0.98 13.02,-3.94 3.67,-2.91 6.17,-6.68 7.8,-11.06 1.91,-5.16 2.74,-10.58 2.74,-16.07 0,-5.52 -0.83,-10.96 -2.74,-16.14 -1.63,-4.42 -4.14,-8.23 -7.82,-11.19 -3.72,-2.99 -8.31,-3.98 -13,-3.98 -4.69,0 -9.28,0.99 -13,3.98 -3.68,2.96 -6.19,6.77 -7.82,11.19 -1.91,5.19 -2.74,10.62 -2.74,16.14 0,5.49 0.82,10.91 2.74,16.07 1.63,4.38 4.13,8.14 7.8,11.06 3.73,2.96 8.34,3.94 13.02,3.94zm124.14 -44.49l43 0c-0.41,-2.41 -1.14,-4.75 -2.27,-6.98 -1.69,-3.35 -4.06,-6.01 -7.24,-8 -3.37,-2.11 -7.19,-2.9 -11.13,-2.9 -4.43,0 -8.64,0.97 -12.34,3.48 -3.51,2.38 -6.19,5.45 -8.08,9.26 -0.82,1.67 -1.47,3.38 -1.94,5.14z"/>
  <path class="fil2" d="M118.12 1005.4l-35.49 95.98 -15 0 -35.49 -95.98 16 0 26.49 76.48 1 0 26.49 -76.48 16 0zm55.02 97.98c-8.66,0 -16.27,-2.06 -22.81,-6.19 -6.5,-4.12 -11.58,-9.89 -15.25,-17.31 -3.62,-7.41 -5.44,-16.08 -5.44,-25.99 0,-10 1.81,-18.72 5.44,-26.18 3.67,-7.46 8.75,-13.25 15.25,-17.37 6.54,-4.12 14.14,-6.19 22.81,-6.19 8.67,0 16.25,2.06 22.75,6.19 6.54,4.12 11.62,9.91 15.25,17.37 3.67,7.46 5.5,16.18 5.5,26.18 0,9.92 -1.83,18.58 -5.5,25.99 -3.62,7.42 -8.71,13.19 -15.25,17.31 -6.5,4.12 -14.08,6.19 -22.75,6.19zm0 -13.25c6.58,0 12,-1.69 16.25,-5.06 4.25,-3.37 7.39,-7.81 9.43,-13.31 2.04,-5.5 3.06,-11.46 3.06,-17.87 0,-6.41 -1.02,-12.39 -3.06,-17.93 -2.04,-5.54 -5.19,-10.02 -9.43,-13.43 -4.25,-3.42 -9.67,-5.12 -16.25,-5.12 -6.58,0 -12,1.71 -16.25,5.12 -4.25,3.42 -7.39,7.89 -9.43,13.43 -2.04,5.54 -3.06,11.52 -3.06,17.93 0,6.42 1.02,12.37 3.06,17.87 2.04,5.5 5.19,9.94 9.43,13.31 4.25,3.37 9.67,5.06 16.25,5.06zm104.99 13.25c-9,0 -16.75,-2.12 -23.25,-6.37 -6.5,-4.25 -11.5,-10.1 -15,-17.56 -3.5,-7.46 -5.25,-15.98 -5.25,-25.56 0,-9.75 1.79,-18.35 5.37,-25.81 3.62,-7.5 8.67,-13.35 15.12,-17.56 6.5,-4.25 14.08,-6.37 22.75,-6.37 6.75,0 12.83,1.25 18.25,3.75 5.42,2.5 9.85,6 13.31,10.5 3.46,4.5 5.6,9.75 6.44,15.75l-14.75 0c-1.12,-4.37 -3.62,-8.25 -7.5,-11.62 -3.83,-3.42 -9,-5.12 -15.5,-5.12 -5.75,0 -10.79,1.5 -15.12,4.5 -4.29,2.96 -7.64,7.14 -10.06,12.56 -2.37,5.37 -3.56,11.69 -3.56,18.93 0,7.41 1.17,13.87 3.5,19.37 2.38,5.5 5.71,9.77 10,12.81 4.33,3.04 9.42,4.56 15.25,4.56 3.83,0 7.31,-0.67 10.43,-2 3.13,-1.33 5.77,-3.25 7.94,-5.75 2.17,-2.5 3.71,-5.5 4.62,-9l14.75 0c-0.83,5.67 -2.9,10.77 -6.19,15.31 -3.25,4.5 -7.56,8.08 -12.93,10.75 -5.33,2.62 -11.54,3.94 -18.62,3.94zm99.54 0c-9.25,0 -17.22,-2.04 -23.93,-6.12 -6.67,-4.12 -11.81,-9.87 -15.43,-17.25 -3.58,-7.42 -5.37,-16.04 -5.37,-25.87 0,-9.83 1.79,-18.5 5.37,-25.99 3.62,-7.54 8.67,-13.41 15.12,-17.62 6.5,-4.25 14.08,-6.37 22.75,-6.37 5,0 9.93,0.83 14.81,2.5 4.87,1.67 9.31,4.38 13.31,8.12 4,3.71 7.19,8.62 9.56,14.75 2.37,6.12 3.56,13.67 3.56,22.62l0 6.25 -73.98 0 0 -12.75 58.99 0c0,-5.42 -1.08,-10.25 -3.25,-14.5 -2.12,-4.25 -5.17,-7.6 -9.12,-10.06 -3.91,-2.46 -8.54,-3.69 -13.87,-3.69 -5.87,0 -10.96,1.46 -15.25,4.37 -4.25,2.87 -7.52,6.62 -9.81,11.25 -2.29,4.62 -3.44,9.58 -3.44,14.87l0 8.5c0,7.25 1.25,13.39 3.75,18.43 2.54,5 6.06,8.81 10.56,11.44 4.5,2.58 9.73,3.87 15.68,3.87 3.87,0 7.37,-0.54 10.5,-1.62 3.17,-1.12 5.89,-2.79 8.19,-5 2.29,-2.25 4.06,-5.04 5.31,-8.37l14.25 4c-1.5,4.83 -4.02,9.08 -7.56,12.75 -3.54,3.62 -7.91,6.46 -13.12,8.5 -5.21,2 -11.06,3 -17.56,3zm10.75 -109.48l-13 -17.5 -13 17.5 -14 0 0 -1 20.25 -25.99 13.5 0 20.25 25.99 0 1 -14 0zm115.66 49.74l0 57.74 -14.75 0 0 -95.98 14.25 0 0 15 1.25 0c2.25,-4.87 5.67,-8.79 10.25,-11.75 4.58,-3 10.5,-4.5 17.75,-4.5 6.5,0 12.18,1.33 17.06,4 4.88,2.62 8.67,6.62 11.37,12 2.71,5.33 4.06,12.08 4.06,20.25l0 60.99 -14.75 0 0 -59.99c0,-7.54 -1.96,-13.41 -5.87,-17.62 -3.92,-4.25 -9.29,-6.37 -16.12,-6.37 -4.71,0 -8.91,1.02 -12.62,3.06 -3.67,2.04 -6.56,5.02 -8.69,8.93 -2.12,3.92 -3.19,8.67 -3.19,14.25zm127.18 59.74c-8.67,0 -16.27,-2.06 -22.81,-6.19 -6.5,-4.12 -11.58,-9.89 -15.25,-17.31 -3.62,-7.41 -5.43,-16.08 -5.43,-25.99 0,-10 1.81,-18.72 5.43,-26.18 3.67,-7.46 8.75,-13.25 15.25,-17.37 6.54,-4.12 14.14,-6.19 22.81,-6.19 8.67,0 16.25,2.06 22.75,6.19 6.54,4.12 11.62,9.91 15.25,17.37 3.67,7.46 5.5,16.18 5.5,26.18 0,9.92 -1.83,18.58 -5.5,25.99 -3.62,7.42 -8.71,13.19 -15.25,17.31 -6.5,4.12 -14.08,6.19 -22.75,6.19zm0 -13.25c6.58,0 12,-1.69 16.25,-5.06 4.25,-3.37 7.39,-7.81 9.43,-13.31 2.04,-5.5 3.06,-11.46 3.06,-17.87 0,-6.41 -1.02,-12.39 -3.06,-17.93 -2.04,-5.54 -5.19,-10.02 -9.43,-13.43 -4.25,-3.42 -9.67,-5.12 -16.25,-5.12 -6.58,0 -12,1.71 -16.25,5.12 -4.25,3.42 -7.39,7.89 -9.43,13.43 -2.04,5.54 -3.06,11.52 -3.06,17.93 0,6.42 1.02,12.37 3.06,17.87 2.04,5.5 5.19,9.94 9.43,13.31 4.25,3.37 9.67,5.06 16.25,5.06zm154.48 13.25c-9,0 -16.75,-2.12 -23.25,-6.37 -6.5,-4.25 -11.5,-10.1 -15,-17.56 -3.5,-7.46 -5.25,-15.98 -5.25,-25.56 0,-9.75 1.79,-18.35 5.37,-25.81 3.62,-7.5 8.67,-13.35 15.12,-17.56 6.5,-4.25 14.08,-6.37 22.75,-6.37 6.75,0 12.83,1.25 18.25,3.75 5.42,2.5 9.85,6 13.31,10.5 3.46,4.5 5.6,9.75 6.44,15.75l-14.75 0c-1.12,-4.37 -3.62,-8.25 -7.5,-11.62 -3.83,-3.42 -9,-5.12 -15.5,-5.12 -5.75,0 -10.79,1.5 -15.12,4.5 -4.29,2.96 -7.64,7.14 -10.06,12.56 -2.37,5.37 -3.56,11.69 -3.56,18.93 0,7.41 1.17,13.87 3.5,19.37 2.37,5.5 5.71,9.77 10,12.81 4.33,3.04 9.41,4.56 15.25,4.56 3.83,0 7.31,-0.67 10.43,-2 3.12,-1.33 5.77,-3.25 7.93,-5.75 2.17,-2.5 3.71,-5.5 4.62,-9l14.75 0c-0.83,5.67 -2.9,10.77 -6.19,15.31 -3.25,4.5 -7.56,8.08 -12.93,10.75 -5.33,2.62 -11.54,3.94 -18.62,3.94zm98.29 0c-8.67,0 -16.27,-2.06 -22.81,-6.19 -6.5,-4.12 -11.58,-9.89 -15.25,-17.31 -3.62,-7.41 -5.44,-16.08 -5.44,-25.99 0,-10 1.81,-18.72 5.44,-26.18 3.67,-7.46 8.75,-13.25 15.25,-17.37 6.54,-4.12 14.14,-6.19 22.81,-6.19 8.67,0 16.25,2.06 22.75,6.19 6.54,4.12 11.62,9.91 15.25,17.37 3.67,7.46 5.5,16.18 5.5,26.18 0,9.92 -1.83,18.58 -5.5,25.99 -3.62,7.42 -8.71,13.19 -15.25,17.31 -6.5,4.12 -14.08,6.19 -22.75,6.19zm0 -13.25c6.58,0 12,-1.69 16.25,-5.06 4.25,-3.37 7.4,-7.81 9.44,-13.31 2.04,-5.5 3.06,-11.46 3.06,-17.87 0,-6.41 -1.02,-12.39 -3.06,-17.93 -2.04,-5.54 -5.19,-10.02 -9.44,-13.43 -4.25,-3.42 -9.66,-5.12 -16.25,-5.12 -6.58,0 -12,1.71 -16.25,5.12 -4.25,3.42 -7.39,7.89 -9.43,13.43 -2.04,5.54 -3.06,11.52 -3.06,17.93 0,6.42 1.02,12.37 3.06,17.87 2.04,5.5 5.19,9.94 9.43,13.31 4.25,3.37 9.67,5.06 16.25,5.06zm80.75 -46.49l0 57.74 -14.75 0 0 -95.98 14.25 0 0 15 1.25 0c2.25,-4.87 5.67,-8.79 10.25,-11.75 4.58,-3 10.5,-4.5 17.75,-4.5 6.5,0 12.19,1.33 17.06,4 4.87,2.62 8.67,6.62 11.37,12 2.71,5.33 4.06,12.08 4.06,20.25l0 60.99 -14.75 0 0 -59.99c0,-7.54 -1.96,-13.41 -5.87,-17.62 -3.92,-4.25 -9.29,-6.37 -16.12,-6.37 -4.71,0 -8.91,1.02 -12.62,3.06 -3.67,2.04 -6.56,5.02 -8.69,8.93 -2.12,3.92 -3.19,8.67 -3.19,14.25zm129.93 -38.24l0 12.5 -49.74 0 0 -12.5 49.74 0zm-35.24 -23l14.75 0 0 91.48c0,4.17 0.6,7.29 1.81,9.37 1.25,2.04 2.83,3.42 4.75,4.12 1.96,0.67 4.02,1 6.19,1 1.62,0 2.96,-0.08 4,-0.25 1.04,-0.21 1.87,-0.37 2.5,-0.5l3 13.25c-1,0.38 -2.4,0.75 -4.19,1.12 -1.79,0.42 -4.06,0.63 -6.81,0.63 -4.17,0 -8.25,-0.9 -12.25,-2.69 -3.96,-1.79 -7.25,-4.52 -9.87,-8.19 -2.58,-3.67 -3.87,-8.29 -3.87,-13.87l0 -95.48zm57.43 118.97l0 -95.98 14.25 0 0 14.5 1 0c1.75,-4.75 4.92,-8.6 9.5,-11.56 4.58,-2.96 9.75,-4.44 15.5,-4.44 1.08,0 2.44,0.02 4.06,0.06 1.63,0.04 2.86,0.1 3.69,0.19l0 15c-0.5,-0.13 -1.65,-0.31 -3.44,-0.56 -1.75,-0.29 -3.6,-0.44 -5.56,-0.44 -4.67,0 -8.83,0.98 -12.5,2.94 -3.62,1.92 -6.5,4.58 -8.62,8 -2.08,3.37 -3.12,7.23 -3.12,11.56l0 60.74 -14.75 0zm101.54 2c-8.67,0 -16.27,-2.06 -22.81,-6.19 -6.5,-4.12 -11.58,-9.89 -15.25,-17.31 -3.62,-7.41 -5.44,-16.08 -5.44,-25.99 0,-10 1.81,-18.72 5.44,-26.18 3.67,-7.46 8.75,-13.25 15.25,-17.37 6.54,-4.12 14.14,-6.19 22.81,-6.19 8.66,0 16.25,2.06 22.75,6.19 6.54,4.12 11.62,9.91 15.25,17.37 3.67,7.46 5.5,16.18 5.5,26.18 0,9.92 -1.83,18.58 -5.5,25.99 -3.62,7.42 -8.71,13.19 -15.25,17.31 -6.5,4.12 -14.08,6.19 -22.75,6.19zm0 -13.25c6.58,0 12,-1.69 16.25,-5.06 4.25,-3.37 7.39,-7.81 9.43,-13.31 2.04,-5.5 3.06,-11.46 3.06,-17.87 0,-6.41 -1.02,-12.39 -3.06,-17.93 -2.04,-5.54 -5.19,-10.02 -9.43,-13.43 -4.25,-3.42 -9.66,-5.12 -16.25,-5.12 -6.58,0 -12,1.71 -16.25,5.12 -4.25,3.42 -7.39,7.89 -9.43,13.43 -2.04,5.54 -3.06,11.52 -3.06,17.93 0,6.42 1.02,12.37 3.06,17.87 2.04,5.5 5.19,9.94 9.43,13.31 4.25,3.37 9.66,5.06 16.25,5.06zm80.75 -116.73l0 127.97 -14.75 0 0 -127.97 14.75 0zm67.25 129.97c-9.25,0 -17.22,-2.04 -23.93,-6.12 -6.67,-4.12 -11.81,-9.87 -15.43,-17.25 -3.58,-7.42 -5.37,-16.04 -5.37,-25.87 0,-9.83 1.79,-18.5 5.37,-25.99 3.62,-7.54 8.67,-13.41 15.12,-17.62 6.5,-4.25 14.08,-6.37 22.75,-6.37 5,0 9.93,0.83 14.81,2.5 4.87,1.67 9.31,4.38 13.31,8.12 4,3.71 7.19,8.62 9.56,14.75 2.38,6.12 3.56,13.67 3.56,22.62l0 6.25 -73.98 0 0 -12.75 58.99 0c0,-5.42 -1.08,-10.25 -3.25,-14.5 -2.12,-4.25 -5.17,-7.6 -9.12,-10.06 -3.92,-2.46 -8.54,-3.69 -13.87,-3.69 -5.87,0 -10.96,1.46 -15.25,4.37 -4.25,2.87 -7.52,6.62 -9.81,11.25 -2.29,4.62 -3.44,9.58 -3.44,14.87l0 8.5c0,7.25 1.25,13.39 3.75,18.43 2.54,5 6.06,8.81 10.56,11.44 4.5,2.58 9.73,3.87 15.68,3.87 3.88,0 7.37,-0.54 10.5,-1.62 3.17,-1.12 5.9,-2.79 8.19,-5 2.29,-2.25 4.06,-5.04 5.31,-8.37l14.25 4c-1.5,4.83 -4.02,9.08 -7.56,12.75 -3.54,3.62 -7.91,6.46 -13.12,8.5 -5.21,2 -11.06,3 -17.56,3z"/>
  <path class="fil0" d="M626.05 516.05c-0.14,-21.91 -2.34,-47.47 -17.57,-64.6 -6,-6.76 -13.61,-12.21 -21.12,-17.17 -4.9,-3.23 -9.91,-6.33 -14.89,-9.44 -5.83,-3.64 -11.63,-7.32 -17.33,-11.16l-3.85 -2.59c-2.22,-1.5 -3.63,-3.52 -4.28,-6.12l-1.11 -4.5c-4.82,-19.64 -8.22,-39.28 -8.02,-59.36 -1.51,0.82 -3.03,1.62 -4.57,2.38 -29.77,14.78 -66.1,18.62 -98.87,20.38l-16.8 0.9c-3.45,0.18 -6.5,-1.19 -8.66,-3.89 -2.15,-2.7 -2.81,-5.98 -1.86,-9.3l4.62 -16.18c7.97,-27.88 18.04,-58.97 37.4,-81.18 3.14,-3.61 6.49,-6.94 10.03,-10.01 -46.36,-12.86 -96.08,-30.99 -131.67,-61.74 -50.28,-43.43 -62.56,-103.05 -62.98,-167.11 -0.03,-4.96 3.33,-9.16 8.19,-10.2l22.97 -4.93c4.85,-1.04 9.64,1.4 11.65,5.94 23.69,53.62 51.94,91.69 108.26,113.57 85.39,33.17 216.6,20.33 305.02,8.48l1.49 -0.2c0.89,-0.12 1.67,-0.13 2.57,-0.02l1.5 0.17c44.39,5.15 89.22,9.38 133.93,10.18 39.47,0.7 80.21,-1.24 118.87,-9.66 71.87,-15.66 124.89,-51.52 152.52,-121.67 1.88,-4.77 6.85,-7.42 11.86,-6.32l23.14 5.08c5.01,1.1 8.41,5.59 8.12,10.71 -3.43,60.37 -13.56,121.72 -58.51,166.02 -35.15,34.65 -85.89,53.08 -134.16,64.96 3.17,2.81 6.2,5.81 9.07,9.02 19.52,21.75 30.31,51 38.7,78.55l4.83 15.86c1,3.28 0.42,6.54 -1.66,9.28 -2.07,2.73 -5.06,4.17 -8.49,4.1l-16.58 -0.38c-30.98,-0.7 -63.13,-3.66 -91.35,-17.47 -3.7,-1.81 -7.28,-3.78 -10.77,-5.91 -0.7,22.38 -7.2,42.79 -15.98,63.39l-1.51 3.54c-0.89,2.08 -2.22,3.61 -4.14,4.79l-3.29 2c-19.45,11.84 -41.61,26.82 -54.36,46.16 -10.99,16.67 -14.82,36.44 -17.1,55.97 2.87,21.37 0.55,41.64 -14.94,57.95 -16.11,16.97 -43.28,24.92 -65.34,30.47l-2.69 0.68c-1.61,0.4 -3.06,0.43 -4.68,0.09l-2.72 -0.58c-23.46,-4.99 -52.97,-12.2 -71.45,-28.31 -18.39,-16.03 -22.97,-37.1 -21.45,-60.6zm225.21 -136.13c5.53,-13.89 9.76,-28.06 9.8,-43.19 0.06,-18.89 -6.32,-38.65 -12.85,-56.17 -1.82,-4.9 0.24,-10.32 4.86,-12.77l21.02 -11.14c4.62,-2.45 10.26,-1.11 13.29,3.15 13.06,18.36 28.13,36.38 48.75,46.46 12.32,6.03 26.12,9.11 39.9,10.8 -4.68,-11.12 -10.53,-22.06 -18.28,-30.7 -12.94,-14.42 -30.82,-21.32 -49.06,-26.47 -4.72,-1.33 -7.79,-5.63 -7.53,-10.52l1.25 -23.37c0.26,-4.89 3.78,-8.84 8.61,-9.66 54.56,-9.25 132.7,-25.25 173.71,-65.66 10.79,-10.63 18.81,-22.58 24.89,-35.52 -33.99,29.51 -75.66,47.34 -121.12,57.24 -41.87,9.12 -85.69,11.43 -128.44,10.72 -45.51,-0.75 -91.08,-4.95 -136.28,-10.19 -97.27,12.91 -230.98,24.79 -324.37,-11.48 -25.13,-9.76 -46.82,-22.65 -65.68,-39.16 6.12,9.53 13.68,18.3 23.01,26.37 43.23,37.34 122.78,55.91 177.29,67.9 4.9,1.08 8.26,5.37 8.13,10.38l-0.6 23.55c-0.13,5.01 -3.71,9.13 -8.65,9.95 -18.71,3.12 -37.17,8.41 -50.04,23.18 -7.79,8.94 -13.53,20.95 -18.02,32.81 16.73,-2.13 34.09,-5.77 48.59,-12.97 19.35,-9.6 31.87,-25.11 43.45,-42.88 2.89,-4.44 8.59,-5.98 13.33,-3.6l21.31 10.7c4.73,2.38 6.9,7.87 5.07,12.84 -6.23,16.89 -12.1,34.42 -13.61,52.46 -1.36,16.32 0.89,32.5 4.38,48.4 2.92,1.88 5.87,3.73 8.81,5.58 5.28,3.3 10.58,6.59 15.78,10.02 10.91,7.2 21.2,14.97 29.93,24.79 23.52,26.47 28.71,60.61 28.86,94.87l0 0.45c0,0.28 -0.01,0.52 -0.03,0.8l-0.03 0.45c-0.63,8.67 -0.9,18.47 6.17,24.64 9.85,8.59 32.66,14.16 46.28,17.18 11.39,-3 31.39,-8.81 38.8,-16.61 5.38,-5.66 3.81,-16.47 2.73,-23.36l-0.24 -1.57c-0.15,-0.94 -0.17,-1.76 -0.06,-2.71l0.17 -1.58c3.04,-28.11 8.78,-54.62 24.54,-78.52 15.53,-23.55 38.52,-40.98 62.16,-55.85z"/>
  <path class="fil3" d="M286.88 15.21l10.98 -4.85 -22.97 4.93 12 -0.08zm436.71 135.17l1.39 -11.92 -1.5 -0.17 -1.49 0.2 1.59 11.89zm428.71 -135.17l11.98 0.68 -23.14 -5.08 11.16 4.4zm-237.55 223.15l-2.01 -11.83 -1.25 23.37 3.26 -11.55zm93.58 103.18l-0.27 11.99 16.58 0.38 -4.83 -15.86 -11.48 3.49zm-139.17 -68.78l9.78 -6.96 -21.02 11.14 11.24 -4.19zm0 122.37l6.23 10.25 3.29 -2 1.51 -3.54 -11.03 -4.71zm-82.38 121.57l-11.93 -1.31 -0.17 1.58 0.24 1.57 11.85 -1.85zm-63.19 66.38l-2.49 11.74 2.72 0.58 2.69 -0.68 -2.92 -11.64zm-75.18 -66.38l11.97 0.85 0.03 -0.45 -0 -0.45 -12 0.05zm-80.78 -121.57l-11.65 2.86 1.11 4.5 3.85 2.59 6.7 -9.95zm8 -122.37l11.26 4.15 -21.31 -10.7 10.05 6.55zm-142.37 68.78l-11.53 -3.29 -4.62 16.18 16.8 -0.9 -0.64 -11.98zm95.98 -103.18l1.97 11.83 0.6 -23.55 -2.58 11.72zm-253.32 -218.3c25.55,57.84 58.99,105.2 127.25,131.71 67.11,26.07 166.39,31.36 322.03,10.5l-3.19 -23.78c-154.7,20.73 -248.92,14.7 -310.15,-9.09 -60.09,-23.34 -89.83,-64.36 -113.99,-119.04l-21.95 9.69zm446.29 142.24c92.41,10.8 185.7,17.04 264.09,-0.04 79.14,-17.24 144.03,-58.53 177.17,-142.65l-22.33 -8.8c-29.51,74.91 -86.59,112.02 -159.95,128 -74.11,16.15 -163.85,10.45 -256.2,-0.34l-2.79 23.83zm418.12 -147.77c-3.86,68.03 -16.47,112.1 -48.33,143.5 -32.32,31.86 -86.51,52.77 -179.25,68.5l4.01 23.66c93.45,-15.85 154.13,-37.67 192.08,-75.07 38.41,-37.86 51.49,-89.58 55.44,-159.23l-23.96 -1.36zm-228.83 235.38c25.78,7.27 41.85,16.03 53.96,29.52 12.39,13.8 21.69,33.71 31.4,65.6l22.96 -6.99c-9.97,-32.74 -20.5,-56.82 -36.5,-74.65 -16.28,-18.14 -37.16,-28.65 -65.3,-36.59l-6.51 23.09zm97.11 79.64c-34.79,-0.79 -58.12,-4.73 -77.03,-13.99 -18.74,-9.17 -34.44,-24.18 -52.64,-49.76l-19.55 13.91c19.35,27.2 37.86,45.77 61.64,57.41 23.6,11.55 51.09,15.61 87.03,16.42l0.54 -23.99zm-150.69 -52.6c9.4,25.26 13.55,43.27 13.5,59.81 -0.05,16.41 -4.23,32.42 -13.29,53.67l22.07 9.41c9.72,-22.79 15.15,-42.15 15.21,-63.01 0.06,-20.73 -5.19,-41.88 -15.01,-68.26l-22.49 8.37zm5.01 107.94c-30.69,18.67 -51.46,35.79 -65.18,56.59 -13.8,20.93 -19.66,44.36 -22.89,73.93l23.85 2.61c3.06,-27.95 8.3,-47 19.07,-63.33 10.85,-16.46 28.12,-31.36 57.62,-49.3l-12.47 -20.5zm-88 133.67c2.73,17.51 0.36,25.97 -5.46,32.09 -6.97,7.34 -21.04,13.85 -48.79,20.81l5.84 23.27c27.62,-6.93 48.1,-14.66 60.36,-27.56 13.41,-14.12 14.95,-31.91 11.77,-52.31l-23.71 3.7zm-48.84 52.8c-30.45,-6.47 -47.06,-12.79 -56.02,-20.6 -7.59,-6.61 -10.95,-15.51 -9.69,-33.19l-23.93 -1.7c-1.54,21.6 2.34,39.45 17.86,52.99 14.15,12.33 36.53,19.56 66.8,25.99l4.99 -23.47zm-65.68 -54.7c-0.18,-43.02 -9.25,-68.91 -26.25,-88.03 -8.22,-9.25 -17.86,-16.41 -27.89,-23.02 -5.01,-3.3 -10.29,-6.58 -15.58,-9.88 -5.34,-3.34 -10.78,-6.77 -16.37,-10.54l-13.4 19.91c5.94,4 11.67,7.61 17.04,10.97 5.42,3.39 10.39,6.48 15.1,9.58 9.39,6.19 17,12 23.16,18.93 11.78,13.25 20.02,32.62 20.19,72.19l23.99 -0.1zm-81.13 -124.38c-6.18,-25.2 -8.01,-43.34 -6.6,-60.18 1.41,-16.93 6.15,-33.33 14.21,-55.18l-22.52 -8.3c-8.28,22.48 -13.92,41.3 -15.6,61.49 -1.69,20.27 0.65,41.15 7.21,67.89l23.3 -5.72zm-13.71 -126.06c-14.96,22.96 -28.68,37.15 -47.52,46.51 -19.25,9.55 -45.05,14.68 -85.44,16.85l1.29 23.96c41.32,-2.22 71.1,-7.54 94.82,-19.32 24.12,-11.98 40.73,-29.99 56.96,-54.9l-20.1 -13.1zm-120.78 78.63c9.4,-32.94 17.97,-53.93 30.27,-68.05 11.76,-13.5 28.07,-21.91 56.15,-26.59l-3.94 -23.67c-31.39,5.23 -53.65,15.39 -70.29,34.49 -16.11,18.48 -25.8,44.12 -35.25,77.22l23.07 6.59zm87.02 -118.19c-88.47,-19.46 -146.01,-39.22 -181.84,-70.18 -34.76,-30.03 -50.63,-72.09 -51.09,-141.34l-23.99 0.16c0.48,72.99 17.4,123.06 59.39,159.34 40.92,35.35 104.08,56.04 192.37,75.45l5.15 -23.43z"/>
 </g>
</svg>
